<mxfile host="app.diagrams.net" agent="Mozilla/5.0 (Windows NT 10.0; Win64; x64) AppleWebKit/537.36 (KHTML, like Gecko) Chrome/129.0.0.0 Safari/537.36" version="24.7.16">
  <diagram name="Page-1" id="hY_E_2MvY5McislBfFXX">
    <mxGraphModel dx="1114" dy="592" grid="1" gridSize="10" guides="1" tooltips="1" connect="1" arrows="1" fold="1" page="1" pageScale="1" pageWidth="850" pageHeight="1100" math="0" shadow="0">
      <root>
        <mxCell id="0" />
        <mxCell id="1" parent="0" />
        <mxCell id="SuLtBPuV00fTaetFLAZB-1" value="" style="rounded=1;arcSize=10;dashed=1;strokeColor=#F59D56;fillColor=none;gradientColor=none;strokeWidth=2;" vertex="1" parent="1">
          <mxGeometry x="150" y="40" width="210" height="230" as="geometry" />
        </mxCell>
        <mxCell id="SuLtBPuV00fTaetFLAZB-13" style="edgeStyle=orthogonalEdgeStyle;rounded=0;orthogonalLoop=1;jettySize=auto;html=1;endArrow=none;endFill=0;" edge="1" parent="1" source="SuLtBPuV00fTaetFLAZB-3" target="SuLtBPuV00fTaetFLAZB-6">
          <mxGeometry relative="1" as="geometry">
            <Array as="points">
              <mxPoint x="205" y="80" />
            </Array>
          </mxGeometry>
        </mxCell>
        <mxCell id="SuLtBPuV00fTaetFLAZB-3" value="VMertics" style="sketch=0;outlineConnect=0;fontColor=#232F3E;gradientColor=none;strokeColor=#ffffff;fillColor=#232F3E;dashed=0;verticalLabelPosition=middle;verticalAlign=bottom;align=center;html=1;whiteSpace=wrap;fontSize=10;fontStyle=1;spacing=3;shape=mxgraph.aws4.productIcon;prIcon=mxgraph.aws4.eks;" vertex="1" parent="1">
          <mxGeometry x="180" y="120" width="50" height="70" as="geometry" />
        </mxCell>
        <mxCell id="SuLtBPuV00fTaetFLAZB-4" value="VLogs" style="sketch=0;outlineConnect=0;fontColor=#232F3E;gradientColor=none;strokeColor=#ffffff;fillColor=#232F3E;dashed=0;verticalLabelPosition=middle;verticalAlign=bottom;align=center;html=1;whiteSpace=wrap;fontSize=10;fontStyle=1;spacing=3;shape=mxgraph.aws4.productIcon;prIcon=mxgraph.aws4.eks;" vertex="1" parent="1">
          <mxGeometry x="270" y="120" width="50" height="70" as="geometry" />
        </mxCell>
        <mxCell id="SuLtBPuV00fTaetFLAZB-7" style="edgeStyle=orthogonalEdgeStyle;rounded=0;orthogonalLoop=1;jettySize=auto;html=1;endArrow=none;endFill=0;entryX=0;entryY=0.5;entryDx=0;entryDy=0;entryPerimeter=0;" edge="1" parent="1" source="SuLtBPuV00fTaetFLAZB-5" target="SuLtBPuV00fTaetFLAZB-3">
          <mxGeometry relative="1" as="geometry">
            <Array as="points">
              <mxPoint x="170" y="215" />
              <mxPoint x="170" y="155" />
            </Array>
          </mxGeometry>
        </mxCell>
        <mxCell id="SuLtBPuV00fTaetFLAZB-10" style="edgeStyle=orthogonalEdgeStyle;rounded=0;orthogonalLoop=1;jettySize=auto;html=1;exitX=0.995;exitY=0.63;exitDx=0;exitDy=0;exitPerimeter=0;endArrow=none;endFill=0;" edge="1" parent="1" source="SuLtBPuV00fTaetFLAZB-5" target="SuLtBPuV00fTaetFLAZB-4">
          <mxGeometry relative="1" as="geometry">
            <Array as="points">
              <mxPoint x="340" y="219" />
              <mxPoint x="340" y="155" />
            </Array>
          </mxGeometry>
        </mxCell>
        <mxCell id="SuLtBPuV00fTaetFLAZB-5" value="&lt;font style=&quot;font-size: 10px;&quot;&gt;VMauth&lt;/font&gt;" style="aspect=fixed;sketch=0;html=1;dashed=0;whitespace=wrap;verticalLabelPosition=bottom;verticalAlign=top;fillColor=#2875E2;strokeColor=#ffffff;points=[[0.005,0.63,0],[0.1,0.2,0],[0.9,0.2,0],[0.5,0,0],[0.995,0.63,0],[0.72,0.99,0],[0.5,1,0],[0.28,0.99,0]];shape=mxgraph.kubernetes.icon2;prIcon=k_proxy" vertex="1" parent="1">
          <mxGeometry x="235" y="200" width="31.25" height="30" as="geometry" />
        </mxCell>
        <mxCell id="SuLtBPuV00fTaetFLAZB-21" style="edgeStyle=orthogonalEdgeStyle;rounded=0;orthogonalLoop=1;jettySize=auto;html=1;endArrow=none;endFill=0;" edge="1" parent="1" source="SuLtBPuV00fTaetFLAZB-6" target="SuLtBPuV00fTaetFLAZB-4">
          <mxGeometry relative="1" as="geometry">
            <Array as="points">
              <mxPoint x="295" y="80" />
            </Array>
          </mxGeometry>
        </mxCell>
        <mxCell id="SuLtBPuV00fTaetFLAZB-6" value="Grafana" style="image;aspect=fixed;html=1;points=[];align=center;fontSize=10;image=img/lib/azure2/other/Grafana.svg;" vertex="1" parent="1">
          <mxGeometry x="231" y="68" width="38.64" height="30" as="geometry" />
        </mxCell>
        <mxCell id="SuLtBPuV00fTaetFLAZB-23" value="" style="rounded=1;arcSize=10;dashed=1;strokeColor=#F59D56;fillColor=none;gradientColor=none;strokeWidth=2;" vertex="1" parent="1">
          <mxGeometry x="460" y="40" width="210" height="230" as="geometry" />
        </mxCell>
        <mxCell id="SuLtBPuV00fTaetFLAZB-24" style="edgeStyle=orthogonalEdgeStyle;rounded=0;orthogonalLoop=1;jettySize=auto;html=1;endArrow=none;endFill=0;" edge="1" parent="1" source="SuLtBPuV00fTaetFLAZB-25" target="SuLtBPuV00fTaetFLAZB-31">
          <mxGeometry relative="1" as="geometry">
            <Array as="points">
              <mxPoint x="515" y="80" />
            </Array>
          </mxGeometry>
        </mxCell>
        <mxCell id="SuLtBPuV00fTaetFLAZB-25" value="VMertics" style="sketch=0;outlineConnect=0;fontColor=#232F3E;gradientColor=none;strokeColor=#ffffff;fillColor=#232F3E;dashed=0;verticalLabelPosition=middle;verticalAlign=bottom;align=center;html=1;whiteSpace=wrap;fontSize=10;fontStyle=1;spacing=3;shape=mxgraph.aws4.productIcon;prIcon=mxgraph.aws4.eks;" vertex="1" parent="1">
          <mxGeometry x="490" y="120" width="50" height="70" as="geometry" />
        </mxCell>
        <mxCell id="SuLtBPuV00fTaetFLAZB-26" value="VLogs" style="sketch=0;outlineConnect=0;fontColor=#232F3E;gradientColor=none;strokeColor=#ffffff;fillColor=#232F3E;dashed=0;verticalLabelPosition=middle;verticalAlign=bottom;align=center;html=1;whiteSpace=wrap;fontSize=10;fontStyle=1;spacing=3;shape=mxgraph.aws4.productIcon;prIcon=mxgraph.aws4.eks;" vertex="1" parent="1">
          <mxGeometry x="580" y="120" width="50" height="70" as="geometry" />
        </mxCell>
        <mxCell id="SuLtBPuV00fTaetFLAZB-27" style="edgeStyle=orthogonalEdgeStyle;rounded=0;orthogonalLoop=1;jettySize=auto;html=1;endArrow=none;endFill=0;entryX=0;entryY=0.5;entryDx=0;entryDy=0;entryPerimeter=0;" edge="1" parent="1" source="SuLtBPuV00fTaetFLAZB-29" target="SuLtBPuV00fTaetFLAZB-25">
          <mxGeometry relative="1" as="geometry">
            <Array as="points">
              <mxPoint x="480" y="215" />
              <mxPoint x="480" y="155" />
            </Array>
          </mxGeometry>
        </mxCell>
        <mxCell id="SuLtBPuV00fTaetFLAZB-28" style="edgeStyle=orthogonalEdgeStyle;rounded=0;orthogonalLoop=1;jettySize=auto;html=1;exitX=0.995;exitY=0.63;exitDx=0;exitDy=0;exitPerimeter=0;endArrow=none;endFill=0;" edge="1" parent="1" source="SuLtBPuV00fTaetFLAZB-29" target="SuLtBPuV00fTaetFLAZB-26">
          <mxGeometry relative="1" as="geometry">
            <Array as="points">
              <mxPoint x="650" y="219" />
              <mxPoint x="650" y="155" />
            </Array>
          </mxGeometry>
        </mxCell>
        <mxCell id="SuLtBPuV00fTaetFLAZB-29" value="&lt;font style=&quot;font-size: 10px;&quot;&gt;VMauth&lt;/font&gt;" style="aspect=fixed;sketch=0;html=1;dashed=0;whitespace=wrap;verticalLabelPosition=bottom;verticalAlign=top;fillColor=#2875E2;strokeColor=#ffffff;points=[[0.005,0.63,0],[0.1,0.2,0],[0.9,0.2,0],[0.5,0,0],[0.995,0.63,0],[0.72,0.99,0],[0.5,1,0],[0.28,0.99,0]];shape=mxgraph.kubernetes.icon2;prIcon=k_proxy;" vertex="1" parent="1">
          <mxGeometry x="545" y="200" width="31.25" height="30" as="geometry" />
        </mxCell>
        <mxCell id="SuLtBPuV00fTaetFLAZB-30" style="edgeStyle=orthogonalEdgeStyle;rounded=0;orthogonalLoop=1;jettySize=auto;html=1;endArrow=none;endFill=0;" edge="1" parent="1" source="SuLtBPuV00fTaetFLAZB-31" target="SuLtBPuV00fTaetFLAZB-26">
          <mxGeometry relative="1" as="geometry">
            <Array as="points">
              <mxPoint x="605" y="80" />
            </Array>
          </mxGeometry>
        </mxCell>
        <mxCell id="SuLtBPuV00fTaetFLAZB-31" value="Grafana" style="image;aspect=fixed;html=1;points=[];align=center;fontSize=10;image=img/lib/azure2/other/Grafana.svg;" vertex="1" parent="1">
          <mxGeometry x="541" y="68" width="38.64" height="30" as="geometry" />
        </mxCell>
        <mxCell id="SuLtBPuV00fTaetFLAZB-32" value="&lt;span style=&quot;font-family: &amp;quot;Amazon Ember&amp;quot;, Helvetica, Arial, sans-serif; font-size: 11px; font-style: normal; font-variant-ligatures: normal; font-variant-caps: normal; letter-spacing: normal; orphans: 2; text-align: start; text-indent: 0px; text-transform: none; widows: 2; word-spacing: 0px; -webkit-text-stroke-width: 0px; white-space: normal; background-color: rgb(255, 255, 255); text-decoration-thickness: initial; text-decoration-style: initial; text-decoration-color: initial; float: none; display: inline !important;&quot;&gt;&lt;font color=&quot;#0000ff&quot;&gt;us-west-1a&lt;/font&gt;&lt;/span&gt;" style="text;whiteSpace=wrap;html=1;fontStyle=1;fontSize=11;" vertex="1" parent="1">
          <mxGeometry x="223.5" y="40" width="63" height="20" as="geometry" />
        </mxCell>
        <mxCell id="SuLtBPuV00fTaetFLAZB-33" value="EKS Cluster 1" style="sketch=0;points=[[0,0,0],[0.25,0,0],[0.5,0,0],[0.75,0,0],[1,0,0],[0,1,0],[0.25,1,0],[0.5,1,0],[0.75,1,0],[1,1,0],[0,0.25,0],[0,0.5,0],[0,0.75,0],[1,0.25,0],[1,0.5,0],[1,0.75,0]];outlineConnect=0;fontColor=#232F3E;fillColor=#ED7100;strokeColor=#ffffff;dashed=0;verticalLabelPosition=bottom;verticalAlign=top;align=center;html=1;fontSize=10;fontStyle=0;aspect=fixed;shape=mxgraph.aws4.resourceIcon;resIcon=mxgraph.aws4.eks_cloud;" vertex="1" parent="1">
          <mxGeometry x="226" y="370" width="50" height="50" as="geometry" />
        </mxCell>
        <mxCell id="SuLtBPuV00fTaetFLAZB-37" value="&lt;font style=&quot;font-size: 10px;&quot;&gt;EKS Cluster 4&lt;/font&gt;" style="sketch=0;points=[[0,0,0],[0.25,0,0],[0.5,0,0],[0.75,0,0],[1,0,0],[0,1,0],[0.25,1,0],[0.5,1,0],[0.75,1,0],[1,1,0],[0,0.25,0],[0,0.5,0],[0,0.75,0],[1,0.25,0],[1,0.5,0],[1,0.75,0]];outlineConnect=0;fontColor=#232F3E;fillColor=#ED7100;strokeColor=#ffffff;dashed=0;verticalLabelPosition=bottom;verticalAlign=top;align=center;html=1;fontSize=12;fontStyle=0;aspect=fixed;shape=mxgraph.aws4.resourceIcon;resIcon=mxgraph.aws4.eks_cloud;" vertex="1" parent="1">
          <mxGeometry x="537" y="370" width="50" height="50" as="geometry" />
        </mxCell>
        <mxCell id="SuLtBPuV00fTaetFLAZB-38" value="&lt;font style=&quot;font-size: 10px;&quot;&gt;EKS Cluster 3&lt;/font&gt;" style="sketch=0;points=[[0,0,0],[0.25,0,0],[0.5,0,0],[0.75,0,0],[1,0,0],[0,1,0],[0.25,1,0],[0.5,1,0],[0.75,1,0],[1,1,0],[0,0.25,0],[0,0.5,0],[0,0.75,0],[1,0.25,0],[1,0.5,0],[1,0.75,0]];outlineConnect=0;fontColor=#232F3E;fillColor=#ED7100;strokeColor=#ffffff;dashed=0;verticalLabelPosition=bottom;verticalAlign=top;align=center;html=1;fontSize=12;fontStyle=0;aspect=fixed;shape=mxgraph.aws4.resourceIcon;resIcon=mxgraph.aws4.eks_cloud;" vertex="1" parent="1">
          <mxGeometry x="450" y="370" width="50" height="50" as="geometry" />
        </mxCell>
        <mxCell id="SuLtBPuV00fTaetFLAZB-39" value="EKS Cluster 2" style="sketch=0;points=[[0,0,0],[0.25,0,0],[0.5,0,0],[0.75,0,0],[1,0,0],[0,1,0],[0.25,1,0],[0.5,1,0],[0.75,1,0],[1,1,0],[0,0.25,0],[0,0.5,0],[0,0.75,0],[1,0.25,0],[1,0.5,0],[1,0.75,0]];outlineConnect=0;fontColor=#232F3E;fillColor=#ED7100;strokeColor=#ffffff;dashed=0;verticalLabelPosition=bottom;verticalAlign=top;align=center;html=1;fontSize=10;fontStyle=0;aspect=fixed;shape=mxgraph.aws4.resourceIcon;resIcon=mxgraph.aws4.eks_cloud;" vertex="1" parent="1">
          <mxGeometry x="320" y="370" width="50" height="50" as="geometry" />
        </mxCell>
        <mxCell id="SuLtBPuV00fTaetFLAZB-42" value="" style="endArrow=none;html=1;rounded=0;dashed=1;endFill=0;" edge="1" parent="1" target="SuLtBPuV00fTaetFLAZB-5">
          <mxGeometry width="50" height="50" relative="1" as="geometry">
            <mxPoint x="250" y="370" as="sourcePoint" />
            <mxPoint x="300" y="320" as="targetPoint" />
          </mxGeometry>
        </mxCell>
        <mxCell id="SuLtBPuV00fTaetFLAZB-45" value="" style="endArrow=none;dashed=1;html=1;rounded=0;entryX=0.5;entryY=1;entryDx=0;entryDy=0;entryPerimeter=0;" edge="1" parent="1" target="SuLtBPuV00fTaetFLAZB-29">
          <mxGeometry width="50" height="50" relative="1" as="geometry">
            <mxPoint x="250" y="370" as="sourcePoint" />
            <mxPoint x="300" y="320" as="targetPoint" />
          </mxGeometry>
        </mxCell>
        <mxCell id="SuLtBPuV00fTaetFLAZB-46" value="" style="endArrow=none;html=1;rounded=0;dashed=1;endFill=0;" edge="1" parent="1">
          <mxGeometry width="50" height="50" relative="1" as="geometry">
            <mxPoint x="344.5" y="370" as="sourcePoint" />
            <mxPoint x="250" y="230" as="targetPoint" />
          </mxGeometry>
        </mxCell>
        <mxCell id="SuLtBPuV00fTaetFLAZB-47" value="" style="endArrow=none;html=1;rounded=0;dashed=1;endFill=0;exitX=0.5;exitY=0;exitDx=0;exitDy=0;exitPerimeter=0;" edge="1" parent="1" source="SuLtBPuV00fTaetFLAZB-39">
          <mxGeometry width="50" height="50" relative="1" as="geometry">
            <mxPoint x="340" y="370" as="sourcePoint" />
            <mxPoint x="560.8199999999999" y="230" as="targetPoint" />
          </mxGeometry>
        </mxCell>
        <mxCell id="SuLtBPuV00fTaetFLAZB-48" value="" style="endArrow=none;html=1;rounded=0;dashed=1;endFill=0;" edge="1" parent="1">
          <mxGeometry width="50" height="50" relative="1" as="geometry">
            <mxPoint x="474.5" y="370" as="sourcePoint" />
            <mxPoint x="250" y="230" as="targetPoint" />
          </mxGeometry>
        </mxCell>
        <mxCell id="SuLtBPuV00fTaetFLAZB-49" value="" style="endArrow=none;html=1;rounded=0;dashed=1;endFill=0;" edge="1" parent="1">
          <mxGeometry width="50" height="50" relative="1" as="geometry">
            <mxPoint x="474.5" y="370" as="sourcePoint" />
            <mxPoint x="560" y="230" as="targetPoint" />
          </mxGeometry>
        </mxCell>
        <mxCell id="SuLtBPuV00fTaetFLAZB-50" value="" style="endArrow=none;html=1;rounded=0;dashed=1;endFill=0;" edge="1" parent="1">
          <mxGeometry width="50" height="50" relative="1" as="geometry">
            <mxPoint x="560.5" y="370" as="sourcePoint" />
            <mxPoint x="561.5" y="230" as="targetPoint" />
          </mxGeometry>
        </mxCell>
        <mxCell id="SuLtBPuV00fTaetFLAZB-51" value="" style="endArrow=none;html=1;rounded=0;dashed=1;endFill=0;" edge="1" parent="1">
          <mxGeometry width="50" height="50" relative="1" as="geometry">
            <mxPoint x="560" y="370" as="sourcePoint" />
            <mxPoint x="250" y="230" as="targetPoint" />
          </mxGeometry>
        </mxCell>
        <mxCell id="SuLtBPuV00fTaetFLAZB-52" value="&lt;span style=&quot;font-family: &amp;quot;Amazon Ember&amp;quot;, Helvetica, Arial, sans-serif; font-size: 11px; font-style: normal; font-variant-ligatures: normal; font-variant-caps: normal; letter-spacing: normal; orphans: 2; text-align: start; text-indent: 0px; text-transform: none; widows: 2; word-spacing: 0px; -webkit-text-stroke-width: 0px; white-space: normal; background-color: rgb(255, 255, 255); text-decoration-thickness: initial; text-decoration-style: initial; text-decoration-color: initial; float: none; display: inline !important;&quot;&gt;&lt;font color=&quot;#0000ff&quot;&gt;us-west-1b&lt;/font&gt;&lt;/span&gt;" style="text;whiteSpace=wrap;html=1;fontStyle=1;fontSize=11;" vertex="1" parent="1">
          <mxGeometry x="528.8199999999999" y="40" width="63" height="20" as="geometry" />
        </mxCell>
      </root>
    </mxGraphModel>
  </diagram>
</mxfile>
